# xmcd CD database file
#
# Track frame offsets:
#	150
#	25917
#	49449
#	67859
#	77577
#	96597
#	109602
#	131321
#	148659
#	170747
#	188163
#	207086
#	230769
#	248939
#	272010
#	296066
#
# Disc length: 4218 seconds
#
# Revision: 0
# Processed by: cddbd v1.5.1PL0 Copyright (c) Steve Scherf et al.
# Submitted via: CDex 1.50Beta6
#
DISCID=ee107810
DTITLE=AA.VV. - LATINAMERICA 1 - La fuente del ritmo
DYEAR=1900
DGENRE=Salsa
TTITLE0=Tito Puente - Oye como va
TTITLE1=Ruben Blades and Willie Colon - Como un huracan
TTITLE2=Aventura - Obsesion
TTITLE3=Perez Prado and His Orchestra - Mambo no. 5
TTITLE4=Jorge Cordero - Se que te gusta
TTITLE5=Raul Planas - A toda Cuba le gusta
TTITLE6=Max Torres - Acariciame
TTITLE7=Noelia - Enamorada
TTITLE8=Alex D'Castro - Si non fuera por ti
TTITLE9=Isaac Delgado - La vida es un carnaval
TTITLE10=Cesar Pedroso - La voluminosa
TTITLE11=Mario Bauza and His Afro-Cuban Jazz Orchestra - Ifa
TTITLE12=Patato Valdes - Macoris
TTITLE13=Mario Bauza - El manisero
TTITLE14=Los Van Van - Artesano del espacio
TTITLE15=Jerry Rivera - Nada sin ti
EXTD=
EXTT0=
EXTT1=
EXTT2=
EXTT3=
EXTT4=
EXTT5=
EXTT6=
EXTT7=
EXTT8=
EXTT9=
EXTT10=
EXTT11=
EXTT12=
EXTT13=
EXTT14=
EXTT15=
PLAYORDER=
